<?xml version="1.0" encoding="UTF-8"?>
<!DOCTYPE svg PUBLIC "-//W3C//DTD SVG 1.1//EN" "http://www.w3.org/Graphics/SVG/1.1/DTD/svg11.dtd">
<!-- Creator: CorelDRAW 2021 (64-Bit) -->
<svg xmlns="http://www.w3.org/2000/svg" xml:space="preserve" width="20mm" height="20mm" version="1.1" style="shape-rendering:geometricPrecision; text-rendering:geometricPrecision; image-rendering:optimizeQuality; fill-rule:evenodd; clip-rule:evenodd"
viewBox="0 0 2000 2000"
 xmlns:xlink="http://www.w3.org/1999/xlink"
 xmlns:xodm="http://www.corel.com/coreldraw/odm/2003">
 <defs>
  <style type="text/css">
   <![CDATA[
    .fil1 {fill:#201E1E}
    .fil0 {fill:black}
   ]]>
  </style>
 </defs>
 <g id="Capa_x0020_1">
  <metadata id="CorelCorpID_0Corel-Layer"/>
  <g id="_2640466934608">
   <path class="fil0" d="M1155.12 824.82c-111.13,15.7 -247.8,43.33 -363.65,63.99 -28.41,5.07 -43.5,10.03 -56.59,29.96 -28.41,43.23 8.97,97.56 62.08,90.45 104.35,-13.95 251.12,-47.06 362.92,-64.08 28,-4.27 44.72,-10.86 55.74,-30.95 25.18,-45.92 -10.31,-96.46 -60.5,-89.37z"/>
   <path class="fil0" d="M1150.78 684.77l-363.91 63.86c-99.52,16.99 -67.74,132.5 14.06,119.05 97.04,-15.96 194.41,-33.94 291.04,-51.39 50.18,-9.06 106.47,-8.73 125.57,-45.82 24.67,-47.92 -17.04,-94.05 -66.76,-85.7z"/>
   <path class="fil0" d="M915.09 572.02c19.24,-2.33 107.6,-15.66 117.69,-22.05 6.78,-13.14 1.99,-409.2 1.86,-461.04l-119.35 -1 -0.2 484.09z"/>
   <path class="fil0" d="M1148.54 544.45l-364.02 63.74c-91.73,15.93 -69.47,133.22 18.59,118.14 97.04,-16.62 193.6,-34.4 290.9,-51.33 50.28,-8.75 105,-8.5 124.26,-46.85 10.84,-21.59 5.97,-47.92 -7.62,-63.84 -14.8,-17.33 -31.3,-25.45 -62.11,-19.86z"/>
   <path class="fil0" d="M574.52 370.9c4.74,7.72 13.18,14 19.01,21.27 13.88,17.28 47.65,50.09 58.08,67.04 8.73,-3.96 17.15,-15.06 26.01,-21.74 53.47,-40.32 123.35,-44.05 177.91,-5.93 12.33,8.62 39.09,33.66 45.71,48.42l0.78 -159.6c-87.82,-59.24 -244.3,-37.87 -314.8,37.05 -6.35,6.75 -7.68,9.08 -12.7,13.49z"/>
   <path class="fil1" d="M744.48 1099.49c-13.24,19.92 -25.79,40.12 -38.86,60.78 -26.23,41.47 -51.32,79.16 -76.66,120.05 -52.98,85.45 -75.16,205.8 -48.01,319.81 44.74,187.92 222.63,349.15 459.81,324.5 204.34,-21.25 370.4,-193.85 374.76,-411.33 3.57,-177.88 -94.13,-270.51 -184.97,-404.38 -33.46,-47.22 -68.92,-95.97 -101.24,-143.68 -40.95,6.1 -83.57,13.39 -124.18,21.69 -8.23,3.15 -2.41,0.61 -5.21,2.72 74.93,116.18 169.48,240.42 250.25,355.07 96.26,157.91 32.47,351.65 -116.82,429.79 -197.86,103.56 -456.56,-45.26 -445.04,-289.39 2.17,-45.89 14.69,-89.48 33.08,-125.16 16.99,-32.97 228.87,-353.19 229.25,-363.94 -30.79,5.26 -128.06,17.08 -152.41,26.92 -11.8,4.77 -45.27,63.78 -53.75,76.55z"/>
  </g>
 </g>
</svg>
