<?xml version="1.0" encoding="UTF-8"?>
<!DOCTYPE svg PUBLIC "-//W3C//DTD SVG 1.1//EN" "http://www.w3.org/Graphics/SVG/1.1/DTD/svg11.dtd">
<!-- Creator: CorelDRAW 2021 (64-Bit) -->
<svg xmlns="http://www.w3.org/2000/svg" xml:space="preserve" width="189.04mm" height="165.41mm" version="1.1" style="shape-rendering:geometricPrecision; text-rendering:geometricPrecision; image-rendering:optimizeQuality; fill-rule:evenodd; clip-rule:evenodd"
viewBox="0 0 18904.02 16540.96"
 xmlns:xlink="http://www.w3.org/1999/xlink">
 <defs>
  <style type="text/css">
   <![CDATA[
    .fil0 {fill:#344050;fill-rule:nonzero}
   ]]>
  </style>
 </defs>
 <g id="Capa_x0020_1">
  <metadata id="CorelCorpID_0Corel-Layer"/>
  <path class="fil0" d="M18492.55 7755.03l-1726.07 -2990.66c36.91,-73.82 64.61,-156.89 64.61,-249.22 0,-276.92 -230.75,-507.7 -507.67,-516.94l-1910.71 -3304.5c18.46,-55.37 36.91,-110.75 36.91,-166.13 0,-295.36 -239.98,-526.14 -526.15,-526.14 -166.13,0 -304.59,73.85 -406.14,193.83l-3673.67 0.01c-92.32,-119.95 -230.78,-193.8 -396.91,-193.8 -166.14,0 -304.6,73.85 -396.92,193.83l-3655.23 0c-101.55,-119.98 -239.98,-193.83 -406.15,-193.83 -286.12,0 -526.14,230.74 -526.14,526.14 0,55.38 18.47,119.99 36.94,166.14l-1929.19 3350.67c-184.57,83.05 -313.83,258.45 -313.83,470.75 0,18.44 9.24,36.91 9.24,55.38l-1836.87 3175.26c-249.22,46.15 -433.86,258.46 -433.86,516.9 0,249.22 175.37,461.53 415.38,516.9l1901.48 3286.06c-18.47,55.38 -27.71,101.52 -27.71,166.14 0,249.22 175.37,461.52 415.38,507.67l1781.49 3092.18c-18.47,55.37 -36.91,119.99 -36.91,184.6 0,295.35 239.98,526.14 526.14,526.14 166.14,0 304.6,-73.85 396.92,-184.6l3682.96 0.01c92.28,110.72 239.98,184.57 396.88,184.57 156.89,0 304.59,-73.85 396.91,-184.61l3692.17 0c92.29,101.52 230.75,166.14 378.44,166.14 295.36,0 526.15,-239.98 526.15,-526.14 0,-55.38 -9.2,-101.52 -27.68,-147.66l1781.49 -3110.66c239.98,-46.14 415.38,-258.45 415.38,-507.67 0,-55.37 -9.24,-110.75 -27.71,-166.13l1892.25 -3286.06c239.97,-46.14 424.61,-258.46 424.61,-516.9 -0.07,-249.22 -175.47,-461.52 -406.21,-507.67l0 0zm-13679.5 7227.41l-1504.53 -2612.19 1504.53 0 0 2612.2 0 -0.01zm0 -2889.11l-1504.53 0c-9.24,-36.91 -27.71,-73.81 -46.15,-110.75l1550.68 -1633.76 0 1744.52 0 -0.01zm0 -2150.7l-1735.31 1836.87c-46.14,-18.46 -92.32,-46.17 -138.46,-55.37l-1919.88 -3322.97c18.43,-46.14 18.43,-92.32 18.43,-138.46 0,-46.14 0,-83.05 -9.23,-119.99l1790.73 -3101.43c92.31,-9.23 184.6,-36.94 267.68,-92.32l1726.08 1790.73 0 3202.94 -0.04 0zm0 -3526.03l-1578.38 -1633.76c46.14,-73.85 73.85,-166.14 73.85,-267.66 0,-9.23 -9.24,-27.71 -9.24,-36.94l1513.77 -544.61 0 2482.97zm0 -2778.36l-1504.53 544.6 1504.53 -2602.99 0 2058.39zm11251.92 1347.67l27.7 46.14 -1218.44 5759.79 -2196.84 -2316.83 3378.34 -3498.33 9.24 9.23 0 0zm-6489 6701.28l396.92 406.14 -784.6 0 387.68 -406.14zm-9.23 -387.69l-2870.64 -2944.48 2741.42 -2907.58 2861.44 3018.34 -2732.21 2833.73 -0.01 -0.01zm184.6 203.07l2732.21 -2833.73 2326.06 2455.29 -203.03 969.19 -4273.72 0.01 -581.52 -590.75 0 -0.01zm3913.71 -10522.66c36.91,18.47 73.82,36.94 120,46.18l1993.76 3470.63 0 18.46c0,101.52 27.68,193.81 73.85,267.66l-3359.87 3489.09 -2861.41 -3018.34 4033.67 -4273.68zm-313.83 -73.85l-3913.71 4144.46 -1966.09 -2076.85 5732.08 -2067.61 147.72 0zm-4255.25 0c92.29,92.28 212.28,147.66 350.78,147.66 138.49,0 258.45,-55.38 350.77,-147.66l2584.51 0 -5113.65 1846.07 -1753.79 -1846.07 3581.38 0zm-4005.96 193.84l36.91 -73.82c30.87,-7.82 62.18,-17.35 92.36,-27.74l1763.02 1855.33 -1892.25 683.04 -0.04 -2436.81zm36.9 2658.4l2095.28 -756.89 2058.39 2178.37 -2741.42 2898.34 -1412.25 -1449.15 0 -2870.68 0 0.01zm0 3193.7l1218.41 1375.31 -1255.32 1319.96 0 -2621.46 36.91 -73.81zm0 3027.61l1449.16 -1532.24 2852.2 2962.96 -590.75 609.19 -3747.51 0 0 -2039.91 36.9 0zm239.99 5584.38c-55.38,-55.38 -119.99,-92.29 -203.08,-120l-36.91 -55.37 0 -3092.18 3442.93 0 -3156.8 3267.55 -46.14 0zm4476.76 0c-92.32,-83.05 -221.51,-147.66 -360.01,-147.66 -138.49,0 -267.65,64.61 -360,147.66l-3322.97 0 3156.8 -3267.55 1319.96 0 3156.8 3267.55 -3627.49 0 36.91 0zm4135.22 -406.15l-147.69 258.45c-46.14,9.24 -83.05,27.68 -119.99,46.15l-3073.72 -3166.04 3941.43 0 -600.02 2861.44 -0.01 0zm443.03 -766.12l443.09 -2095.28 756.88 0 -1199.97 2095.28zm1199.97 -2372.2l-701.51 0 156.9 -729.18 590.75 627.66c-18.44,27.67 -36.91,64.57 -46.14,101.52l0 0zm2279.92 -3701.41l-1910.71 3332.2c-46.14,18.43 -92.32,36.91 -138.46,64.58l-710.75 -756.89 1190.74 -5649 1578.38 2732.21c-9.2,46.14 -27.67,92.29 -27.67,147.66 0,46.15 9.23,83.09 18.46,129.23l0.01 0.01z"/>
 </g>
</svg>
