<?xml version="1.0" encoding="UTF-8"?>
<!DOCTYPE svg PUBLIC "-//W3C//DTD SVG 1.1//EN" "http://www.w3.org/Graphics/SVG/1.1/DTD/svg11.dtd">
<!-- Creator: CorelDRAW 2021 (64-Bit) -->
<svg xmlns="http://www.w3.org/2000/svg" xml:space="preserve" width="201.685mm" height="218.018mm" version="1.1" style="shape-rendering:geometricPrecision; text-rendering:geometricPrecision; image-rendering:optimizeQuality; fill-rule:evenodd; clip-rule:evenodd"
viewBox="0 0 20168.46 21801.76"
 xmlns:xlink="http://www.w3.org/1999/xlink"
 xmlns:xodm="http://www.corel.com/coreldraw/odm/2003">
 <defs>
  <style type="text/css">
   <![CDATA[
    .fil0 {fill:#4B3732}
    .fil1 {fill:#66524E}
   ]]>
  </style>
 </defs>
 <g id="Capa_x0020_1">
  <metadata id="CorelCorpID_0Corel-Layer"/>
  <path class="fil0" d="M16466.2 4147.48c90.06,-0.83 42.3,1.77 61.99,29.86l214.05 0 47.98 0c-72.8,-179.93 -49.36,-1024.79 -66.87,-1331.57 -13.45,-235.75 -78.67,-1198.15 20.28,-1368.3 -17.56,-26.86 -1.47,-24.27 -46.27,-31.99l-211.95 0.99 -54.93 3.03c64.39,396.42 85.49,1878.57 36.2,2388.74 -8.52,88.19 -41.58,233.8 -0.48,309.24z"/>
  <path class="fil1" d="M16843.03 3630.15c-143.75,39.87 -320.91,110.3 -470.96,162.9 -36.79,12.9 -56.44,25.59 -74.19,76.8 -38.53,111.06 7.13,250.99 75.81,232.96 134.94,-35.39 325.35,-119.88 470.02,-163.13 36.23,-10.86 58.05,-27.72 73.14,-79.36 34.5,-118 -8.9,-248.17 -73.82,-230.17z"/>
  <path class="fil1" d="M16843.79 3269.88l-471.28 162.56c-128.87,43.23 -93.2,340.51 12.7,306.3 125.62,-40.6 251.76,-86.4 376.93,-130.83 65,-23.07 137.43,-21.95 163.7,-117.27 33.92,-123.15 -17.68,-242 -82.05,-220.76z"/>
  <path class="fil1" d="M16847.26 2908.92l-471.42 162.25c-118.79,40.55 -95.45,342.36 18.58,303.98 125.65,-42.29 250.74,-87.57 376.75,-130.67 65.1,-22.27 135.53,-21.37 162.05,-119.93 14.94,-55.48 9.86,-123.23 -6.92,-164.26 -18.25,-44.64 -39.13,-65.6 -79.04,-51.37z"/>
 </g>
</svg>
