<?xml version="1.0" encoding="UTF-8"?>
<!DOCTYPE svg PUBLIC "-//W3C//DTD SVG 1.1//EN" "http://www.w3.org/Graphics/SVG/1.1/DTD/svg11.dtd">
<!-- Creator: CorelDRAW 2021 (64-Bit) -->
<svg xmlns="http://www.w3.org/2000/svg" xml:space="preserve" width="201.685mm" height="218.018mm" version="1.1" style="shape-rendering:geometricPrecision; text-rendering:geometricPrecision; image-rendering:optimizeQuality; fill-rule:evenodd; clip-rule:evenodd"
viewBox="0 0 20168.46 21801.76"
 xmlns:xlink="http://www.w3.org/1999/xlink"
 xmlns:xodm="http://www.corel.com/coreldraw/odm/2003">
 <defs>
  <style type="text/css">
   <![CDATA[
    .fil0 {fill:#040404}
    .fil2 {fill:#343434}
    .fil1 {fill:#FEFEFE}
   ]]>
  </style>
 </defs>
 <g id="Capa_x0020_1">
  <metadata id="CorelCorpID_0Corel-Layer"/>
  <path class="fil0" d="M16347.05 4151.88c-512.98,149.01 -774.05,255.67 -1113.19,709.89 -392.05,525.11 -539.19,1324.96 -267.14,1968.54 113.7,268.98 271.59,462.91 492.26,656.27 650.4,569.87 2074.98,373.08 2608.78,-351.4 254.3,-345.12 420.02,-862.73 323.03,-1435.6 -110.15,-650.51 -553.21,-1347.77 -1252.25,-1461.37 -130.55,-21.22 -553.43,-155.47 -791.49,-86.33z"/>
  <path class="fil1" d="M16184.19 4655.23c-697.08,284.88 -992.41,982.69 -865.56,1756.12 217.33,1325.13 2024.14,1145.72 2487.47,320.66 365.53,-650.87 131.63,-2035.6 -977.82,-2104.97 -192.09,-12.02 -479.49,-39.08 -644.09,28.19z"/>
  <path class="fil0" d="M16329.62 5730.6c61.53,-149.74 78.11,-179.98 -23.11,-325.7 -90.55,-130.35 -129.03,-203.22 -254.65,-62.46 -198.87,222.84 -9.47,458.47 277.76,388.16z"/>
  <path class="fil0" d="M16723.82 5555.55c153.93,168.2 216.09,346.07 438.95,58.32 -34.57,-131.74 -139.89,-284.13 -251.61,-335.45 -88.09,60.95 -134.21,163.2 -187.34,277.13z"/>
  <path class="fil2" d="M16064.21 6626.39c222.58,-0.71 501.83,-9.22 717.73,-1.72 339.63,11.8 279.96,146.43 473.96,81.83 -134.55,-117.65 -314.03,-188.87 -528.71,-196.9 -312.36,-11.7 -530.54,-19 -662.98,116.79z"/>
 </g>
</svg>
