<?xml version="1.0" encoding="UTF-8"?>
<!DOCTYPE svg PUBLIC "-//W3C//DTD SVG 1.1//EN" "http://www.w3.org/Graphics/SVG/1.1/DTD/svg11.dtd">
<!-- Creator: CorelDRAW 2021 (64-Bit) -->
<svg xmlns="http://www.w3.org/2000/svg" xml:space="preserve" width="210mm" height="297mm" version="1.1" style="shape-rendering:geometricPrecision; text-rendering:geometricPrecision; image-rendering:optimizeQuality; fill-rule:evenodd; clip-rule:evenodd"
viewBox="0 0 21000 29700"
 xmlns:xlink="http://www.w3.org/1999/xlink"
 xmlns:xodm="http://www.corel.com/coreldraw/odm/2003">
 <defs>
  <style type="text/css">
   <![CDATA[
    .fil0 {fill:#040404}
    .fil2 {fill:#343434}
    .fil1 {fill:#FEFEFE}
   ]]>
  </style>
 </defs>
 <g id="Capa_x0020_1">
  <metadata id="CorelCorpID_0Corel-Layer"/>
  <path class="fil0" d="M16910.41 8141.8c-512.98,149.01 -774.05,255.67 -1113.19,709.89 -392.05,525.11 -539.19,1324.96 -267.14,1968.54 113.7,268.98 271.59,462.91 492.26,656.27 650.4,569.87 2074.98,373.08 2608.78,-351.4 254.3,-345.12 420.02,-862.73 323.03,-1435.6 -110.15,-650.51 -553.21,-1347.77 -1252.25,-1461.37 -130.55,-21.22 -553.43,-155.47 -791.49,-86.33z"/>
  <path class="fil1" d="M16747.55 8645.15c-697.08,284.88 -992.41,982.69 -865.56,1756.12 217.33,1325.13 2024.14,1145.72 2487.47,320.66 365.53,-650.87 131.63,-2035.6 -977.82,-2104.97 -192.09,-12.02 -479.49,-39.08 -644.09,28.19z"/>
  <path class="fil0" d="M16892.98 9720.52c61.53,-149.74 78.11,-179.98 -23.11,-325.7 -90.55,-130.35 -129.03,-203.22 -254.65,-62.46 -198.87,222.84 -9.47,458.47 277.76,388.16z"/>
  <path class="fil0" d="M17287.18 9545.47c153.93,168.2 216.09,346.07 438.95,58.32 -34.57,-131.74 -139.89,-284.13 -251.61,-335.45 -88.09,60.95 -134.21,163.2 -187.34,277.13z"/>
  <path class="fil2" d="M16884.76 10582.9c113.88,-0.52 256.76,-6.71 367.22,-1.25 173.77,8.58 143.24,106.52 242.5,59.53 -68.84,-85.59 -160.67,-137.4 -270.51,-143.24 -159.82,-8.51 -271.45,-13.82 -339.21,84.96z"/>
 </g>
</svg>
