<?xml version="1.0" encoding="UTF-8"?>
<!DOCTYPE svg PUBLIC "-//W3C//DTD SVG 1.1//EN" "http://www.w3.org/Graphics/SVG/1.1/DTD/svg11.dtd">
<!-- Creator: CorelDRAW 2021 (64-Bit) -->
<svg xmlns="http://www.w3.org/2000/svg" xml:space="preserve" width="201.685mm" height="218.018mm" version="1.1" style="shape-rendering:geometricPrecision; text-rendering:geometricPrecision; image-rendering:optimizeQuality; fill-rule:evenodd; clip-rule:evenodd"
viewBox="0 0 20168.46 21801.76"
 xmlns:xlink="http://www.w3.org/1999/xlink"
 xmlns:xodm="http://www.corel.com/coreldraw/odm/2003">
 <defs>
  <style type="text/css">
   <![CDATA[
    .fil0 {fill:#040404}
   ]]>
  </style>
 </defs>
 <g id="Capa_x0020_1">
  <metadata id="CorelCorpID_0Corel-Layer"/>
  <path class="fil0" d="M16661.55 7652.18l-343.48 0c-22.66,16.05 -13.82,13.9 -55.01,31.12 -0.7,0.3 -40.24,12.16 -49.26,15.17l109.19 1010.31c31.42,363.07 35.21,730.4 32.59,1112.3 -2.36,343.45 -71.8,804.98 -41.44,1060.83 39.59,333.52 -8.46,782.38 10.75,1140.36l153.28 -22.19c156.49,-18.64 480.28,-96.6 572.81,-13.16 31.93,-368.93 8.55,-819.1 6.52,-1196.05 -2.01,-374.24 67.1,-737.76 -28.54,-1113.24 -42.56,-167.09 -55.61,-352.62 -58.47,-541.37 -4.18,-276.47 -47.93,-294.14 -86.75,-513.88 -31.76,-179.77 -49.86,-347.3 -74.98,-519.1 -72.08,-493.09 -140.75,-204.39 -147.21,-451.1z"/>
 </g>
</svg>
