<?xml version="1.0" encoding="UTF-8"?>
<!DOCTYPE svg PUBLIC "-//W3C//DTD SVG 1.1//EN" "http://www.w3.org/Graphics/SVG/1.1/DTD/svg11.dtd">
<!-- Creator: CorelDRAW 2021 (64-Bit) -->
<svg xmlns="http://www.w3.org/2000/svg" xml:space="preserve" width="201.685mm" height="218.018mm" version="1.1" style="shape-rendering:geometricPrecision; text-rendering:geometricPrecision; image-rendering:optimizeQuality; fill-rule:evenodd; clip-rule:evenodd"
viewBox="0 0 20168.46 21801.76"
 xmlns:xlink="http://www.w3.org/1999/xlink"
 xmlns:xodm="http://www.corel.com/coreldraw/odm/2003">
 <defs>
  <style type="text/css">
   <![CDATA[
    .fil0 {fill:#040404}
    .fil1 {fill:#E31C1C;fill-rule:nonzero}
   ]]>
  </style>
 </defs>
 <g id="Capa_x0020_1">
  <metadata id="CorelCorpID_0Corel-Layer"/>
  <path class="fil0" d="M14161.85 14620.1c-207.61,245.78 -123.2,248.66 -14.89,377.24 110.89,131.65 82.65,292.13 227.72,384 88.91,-71.19 920.21,-1373.12 1037.33,-1593.29 145.96,-274.36 361.27,-538.04 478.86,-831.27l425.77 -882.36 234.14 -639.21 -155.23 -290.04c-145.07,294.41 -134.56,199.24 -246.88,489.31 -39.43,101.82 -107.76,189.92 -145.34,270.63 -335.48,720.31 -1335.63,2116.05 -1841.48,2714.99z"/>
  <path class="fil1" d="M7155.04 7327.28l703.01 0 0 319.18 -286.86 0 0 305.04 254.54 0 0 303.03 -254.54 0 0 670.68 -416.15 0 0 -1597.93zm1220.18 0l0 1597.93 -416.15 0 0 -1597.93 416.15 0zm1093.23 0l0 1597.93 -363.63 0 -216.15 -726.58 0 726.58 -347.47 0 0 -1597.93 347.47 0 232.31 719.5 0 -719.5 347.47 0zm522.88 0l310.77 0c200.32,0 336.01,9.08 406.71,27.61 70.71,18.52 124.58,48.82 161.28,90.91 36.7,42.07 59.94,88.89 69.02,140.39 9.1,51.86 13.81,153.2 13.81,304.71l0 559.58c0,143.43 -6.73,239.38 -20.21,287.53 -13.47,48.48 -37.03,86.53 -70.37,113.81 -33.65,27.26 -75.08,46.11 -124.56,57.23 -49.17,10.77 -123.58,16.16 -222.9,16.16l-523.55 0 0 -1597.93zm416.15 272.72l0 1052.49c58.92,0 95.28,-12.12 108.75,-36.03 13.81,-24.24 20.54,-89.55 20.54,-196.28l0 -621.54c0,-72.39 -2.36,-118.85 -6.73,-139.39 -4.73,-20.53 -14.83,-35.34 -31.32,-44.78 -16.16,-9.76 -46.47,-14.47 -91.24,-14.47zm700.32 -272.72l692.91 0 0 319.18 -276.76 0 0 305.04 258.58 0 0 303.03 -258.58 0 0 351.5 305.04 0 0 319.18 -721.19 0 0 -1597.93zm1255.52 0l0 1278.75 250.5 0 0 319.18 -666.64 0 0 -1597.93 416.14 0zm-5154.23 2464.24l0 1067.99c0,159.92 -1.69,262.61 -5.04,308.39 -3.37,45.8 -18.53,86.87 -45.13,123.92 -26.93,36.69 -63.29,62.27 -108.75,76.41 -45.45,14.14 -114.13,21.22 -205.71,21.22l-207.07 0 0 -279.8c24.58,2.02 42.42,3.04 53.54,3.04 28.95,0 52.18,-7.08 69.02,-21.55 16.83,-14.48 26.6,-32.32 28.95,-53.53 2.69,-20.88 4.04,-61.62 4.04,-122.22l0 -1123.87 416.15 0zm1105.03 0l0 1068.32c0,121.21 -4.04,206.39 -11.79,255.21 -8.08,49.15 -31.3,99.65 -70.02,151.17 -38.73,51.86 -89.9,90.91 -153.2,117.5 -63.64,26.6 -138.38,40.07 -224.57,40.07 -95.29,0 -179.46,-15.82 -252.18,-47.48 -73.06,-31.64 -127.6,-72.72 -163.63,-123.23 -36.36,-50.83 -57.58,-104.36 -64.31,-160.59 -6.4,-56.23 -9.77,-174.75 -9.77,-354.88l0 -946.09 416.15 0 0 1198.61c0,69.7 3.71,114.48 11.12,133.66 7.4,19.54 22.55,29.3 45.11,29.3 25.59,0 42.42,-10.76 49.84,-31.98 7.39,-21.56 11.1,-72.06 11.1,-151.51l0 -1178.08 416.15 0zm161.27 0l692.91 0 0 319.18 -276.76 0 0 305.04 258.58 0 0 303.02 -258.58 0 0 351.51 305.05 0 0 319.18 -721.2 0 0 -1597.93zm1790.87 589.88l-416.15 0 0 -145.12c0,-91.57 -3.71,-148.82 -11.45,-171.71 -7.73,-23.22 -26.27,-34.67 -55.22,-34.67 -24.91,0 -42.08,9.76 -51.17,29.63 -9.1,19.52 -13.47,70.35 -13.47,151.84l0 766.31c0,71.37 4.37,118.85 13.47,141.41 9.09,22.55 26.93,34 53.86,34 29.64,0 49.5,-12.78 60.27,-38.38 10.44,-25.59 15.83,-75.76 15.83,-150.16l0 -189.22 -80.81 0 0 -242.42 484.84 0 0 856.54 -261.6 0 -38.38 -114.48c-28.29,49.5 -63.98,86.53 -106.74,111.44 -43.1,24.93 -93.94,37.38 -152.19,37.38 -69.69,0 -134.67,-16.83 -195.61,-50.83 -60.6,-34.01 -106.73,-75.77 -138.05,-125.94 -31.64,-49.82 -51.17,-102.34 -59.25,-157.22 -7.75,-54.89 -11.79,-137.37 -11.79,-247.14l0 -474.73c0,-152.52 8.08,-263.29 24.58,-332.31 16.49,-69.37 63.64,-132.66 141.41,-190.23 77.78,-57.58 178.45,-86.19 302.02,-86.19 121.54,0 222.21,24.91 302.33,75.08 80.14,50.17 132.66,109.42 156.91,178.1 24.24,69.02 36.36,168.69 36.36,300l0 69.02zm1109.72 346.81c0,160.59 -3.7,274.05 -11.45,340.72 -7.39,67 -30.97,127.95 -70.7,183.16 -39.72,55.21 -93.6,97.64 -161.26,127.27 -67.69,29.63 -146.47,44.44 -236.36,44.44 -85.53,0 -161.96,-14.14 -229.96,-42.09 -68.02,-27.94 -122.9,-69.68 -163.97,-125.58 -41.42,-55.89 -66,-116.83 -74.08,-182.48 -7.74,-66 -11.78,-181.14 -11.78,-345.44l0 -273.41c0,-160.59 3.7,-274.05 11.45,-340.72 7.4,-67.01 30.97,-127.95 70.7,-183.16 39.72,-55.21 93.6,-97.64 161.28,-127.27 67.67,-29.63 146.45,-44.44 236.36,-44.44 85.51,0 161.94,14.14 229.95,42.09 68.01,27.94 122.89,69.68 163.98,125.58 41.4,55.89 65.98,116.83 74.06,182.48 7.74,66 11.78,181.14 11.78,345.44l0 273.41zm-416.14 -524.92c0,-74.07 -4.04,-121.54 -12.13,-142.42 -8.08,-20.54 -24.57,-30.97 -49.48,-30.97 -21.22,0 -37.38,8.41 -48.83,25.24 -11.11,16.51 -16.83,66 -16.83,148.15l0 745.77c0,92.59 3.7,149.82 11.12,171.38 7.39,21.89 24.57,32.65 51.5,32.65 27.61,0 45.46,-12.45 53.19,-37.38 7.75,-24.91 11.46,-84.49 11.46,-178.44l0 -733.98zm998.61 -411.77l-64.98 1204 -308.07 0 -65.32 -1204 438.37 0zm-32.32 1278.76l0 319.18 -373.73 0 0 -319.18 373.73 0zm577.76 -1278.76l-64.98 1204 -308.08 0 -65.31 -1204 438.37 0zm-32.32 1278.76l0 319.18 -373.73 0 0 -319.18 373.73 0zm577.77 -1278.76l-64.98 1204 -308.08 0 -65.31 -1204 438.37 0zm-32.32 1278.76l0 319.18 -373.73 0 0 -319.18 373.73 0z"/>
 </g>
</svg>
