<?xml version="1.0" encoding="UTF-8"?>
<!DOCTYPE svg PUBLIC "-//W3C//DTD SVG 1.1//EN" "http://www.w3.org/Graphics/SVG/1.1/DTD/svg11.dtd">
<!-- Creator: CorelDRAW 2021 (64-Bit) -->
<svg xmlns="http://www.w3.org/2000/svg" xml:space="preserve" width="210mm" height="297mm" version="1.1" style="shape-rendering:geometricPrecision; text-rendering:geometricPrecision; image-rendering:optimizeQuality; fill-rule:evenodd; clip-rule:evenodd"
viewBox="0 0 21000 29700"
 xmlns:xlink="http://www.w3.org/1999/xlink"
 xmlns:xodm="http://www.corel.com/coreldraw/odm/2003">
 <defs>
  <style type="text/css">
   <![CDATA[
    .fil0 {fill:#402E2E}
    .fil2 {fill:#402E2E;fill-rule:nonzero}
    .fil1 {fill:white;fill-rule:nonzero}
   ]]>
  </style>
 </defs>
 <g id="Capa_x0020_1">
  <metadata id="CorelCorpID_0Corel-Layer"/>
  <g id="_2597667067328">
   <path class="fil0" d="M6699.68 24575c-68.46,-133.44 -370.84,-683.6 -370.84,-858.71 0,-3720.51 -940.1,-16325.24 126.78,-18236.78 1058.12,-1895.83 -24.01,-359.46 -1318.94,-931.21 0,456.78 85.97,18791.78 -380.35,19636.36l-240.45 435.49 -16.48 0.34 -4113.61 85.04c-342.05,7.07 71.45,594.93 -34.55,944.56l218.66 13.84 12293.19 87.49c73.26,-152.29 -114.39,-307.99 -39.97,-388.62 492.17,-533.1 -181.09,-600.38 -1525.84,-671.92l-3675.24 -134.94 -908.65 18.78 -13.71 0.28z"/>
   <path class="fil0" d="M10849.89 4942.17c88.56,-307.68 -647.27,-8.33 -699.47,-992.52 -242.25,258.49 -617.64,675.06 -1155.58,1229.67l-5116.03 261.9c0.1,-19.19 -605.87,1563.78 356.07,1462.58l3371.77 -354.73 -2991.08 2834.46 26.3 1079.92 4593.97 -4085.78 2791.81 -293.7 6861.94 -836.75 -1097.79 -834.22 -7090.13 660.99 148.22 -131.82z"/>
   <path class="fil1" d="M12821.92 5518.96l-23.69 -217.24 74.84 -8.16c16.89,-1.84 29.89,-2.24 39.02,-1.14 12.76,1.53 23.95,5.58 33.56,12.1 12.54,8.46 22.43,19.87 29.73,34.32 7.37,14.44 12.08,31.38 14.19,50.75 1.8,16.49 1.47,31.31 -0.99,44.48 -2.45,13.16 -6.25,24.26 -11.36,33.26 -5.16,9.02 -11.02,16.31 -17.68,21.84 -6.6,5.58 -14.86,10.16 -24.7,13.75 -9.89,3.58 -21.39,6.06 -34.54,7.5l-78.38 8.54zm26.04 -28.63l46.32 -5.05c14.32,-1.56 25.4,-4.09 33.25,-7.66 7.85,-3.57 13.91,-8.02 18.23,-13.41 6.04,-7.56 10.35,-17.34 12.88,-29.29 2.54,-11.94 2.93,-26.11 1.14,-42.54 -2.48,-22.76 -8.13,-39.85 -16.9,-51.28 -8.76,-11.42 -18.71,-18.63 -29.83,-21.61 -8.01,-2.15 -20.56,-2.26 -37.66,-0.39l-45.56 4.96 18.13 166.27zm291.59 -57.58l28 0.63c-2.55,16.5 -9.22,29.86 -19.99,40 -10.77,10.13 -25.26,16.21 -43.51,18.2 -22.96,2.5 -41.94,-2.59 -56.93,-15.29 -14.99,-12.64 -23.89,-31.78 -26.67,-57.32 -2.88,-26.39 1.66,-47.66 13.68,-63.71 12.01,-16.1 28.86,-25.3 50.56,-27.67 20.98,-2.29 38.91,2.97 53.76,15.83 14.87,12.86 23.73,32.26 26.56,58.2 0.17,1.57 0.38,3.96 0.62,7.1l-117.27 12.79c2.89,17.13 9.19,29.86 18.99,38.05 9.75,8.2 21.22,11.6 34.32,10.17 9.76,-1.06 17.82,-4.55 24.14,-10.46 6.36,-5.91 10.92,-14.75 13.74,-26.52zm-92.05 -33.25l87.68 -9.57c-2.6,-13.11 -7.07,-22.66 -13.31,-28.69 -9.56,-9.34 -21.15,-13.3 -34.65,-11.83 -12.23,1.34 -22.06,6.56 -29.51,15.66 -7.4,9.1 -10.8,20.57 -10.21,34.43zm143.19 31.66l25.94 -7.12c2.62,10.41 7.65,18.05 15.04,22.97 7.39,4.88 17.21,6.67 29.34,5.35 12.3,-1.34 21.13,-4.81 26.55,-10.47 5.38,-5.6 7.72,-11.79 6.98,-18.52 -0.65,-6.01 -3.85,-10.48 -9.54,-13.33 -4,-1.98 -13.42,-3.96 -28.29,-6.08 -20.05,-2.78 -34.02,-5.55 -41.99,-8.32 -7.94,-2.81 -14.2,-7.15 -18.78,-13.1 -4.59,-5.9 -7.33,-12.7 -8.17,-20.4 -0.76,-7.03 0.15,-13.68 2.69,-19.99 2.58,-6.32 6.39,-11.75 11.47,-16.3 3.82,-3.48 9.2,-6.68 16.11,-9.58 6.94,-2.9 14.46,-4.8 22.66,-5.69 12.33,-1.34 23.35,-0.76 33.04,1.82 9.75,2.52 17.15,6.63 22.26,12.2 5.07,5.64 9.04,13.45 11.83,23.48l-25.7 6.49c-2.06,-8.07 -6.2,-14.11 -12.36,-18.1 -6.17,-3.98 -14.41,-5.39 -24.77,-4.26 -12.19,1.33 -20.72,4.31 -25.49,8.92 -4.76,4.62 -6.87,9.66 -6.28,15.07 0.37,3.44 1.78,6.46 4.25,9 2.49,2.59 6.13,4.61 10.99,5.97 2.79,0.72 10.83,2.14 24.26,4.26 19.36,2.96 32.96,5.67 40.79,8.04 7.83,2.37 14.21,6.43 19.12,12.04 4.97,5.65 7.92,13 8.91,22.1 0.96,8.85 -0.71,17.48 -5.06,25.89 -4.35,8.4 -11.18,15.29 -20.47,20.65 -9.34,5.36 -20.18,8.7 -32.52,10.05 -20.43,2.22 -36.52,-0.32 -48.16,-7.6 -11.65,-7.33 -19.84,-19.12 -24.65,-35.44zm268.18 -1.61c-8.99,9.53 -17.91,16.49 -26.68,20.98 -8.77,4.49 -18.39,7.28 -28.91,8.42 -17.3,1.89 -31.05,-0.86 -41.28,-8.29 -10.22,-7.38 -16.05,-17.64 -17.48,-30.74 -0.83,-7.69 0.17,-14.91 2.97,-21.67 2.84,-6.75 6.89,-12.31 12.13,-16.77 5.3,-4.47 11.35,-8.1 18.27,-10.84 5.11,-1.95 12.9,-4.12 23.33,-6.59 21.27,-4.88 36.86,-9.7 46.64,-14.35 -0.3,-3.65 -0.5,-5.98 -0.6,-6.94 -1.18,-10.83 -4.54,-18.18 -10.09,-22.08 -7.48,-5.28 -17.97,-7.15 -31.42,-5.69 -12.6,1.38 -21.66,4.61 -27.15,9.67 -5.53,5.05 -9.08,13.32 -10.74,24.86l-26.49 -0.79c1.16,-11.44 4.06,-20.91 8.77,-28.39 4.72,-7.48 12.03,-13.59 21.94,-18.46 9.86,-4.81 21.64,-7.98 35.2,-9.46 13.45,-1.47 24.59,-1.1 33.38,1.17 8.74,2.26 15.4,5.53 19.87,9.9 4.46,4.38 7.91,10.14 10.33,17.3 1.35,4.46 2.7,12.6 3.98,24.38l3.86 35.4c2.7,24.73 4.96,40.3 6.79,46.8 1.79,6.51 4.71,12.58 8.6,18.3l-27.91 3.05c-3.29,-5.32 -5.73,-11.71 -7.31,-19.17zm-8.57 -58.93c-9.29,5.01 -23.49,9.93 -42.61,14.77 -10.86,2.78 -18.45,5.4 -22.78,7.86 -4.34,2.47 -7.51,5.74 -9.59,9.75 -2.06,4.06 -2.87,8.39 -2.36,13.05 0.77,7.03 4.09,12.66 10.02,16.77 5.92,4.11 14.07,5.63 24.44,4.5 10.26,-1.12 19.17,-4.35 26.72,-9.73 7.51,-5.32 12.76,-12.08 15.66,-20.23 2.22,-6.32 2.67,-15.33 1.4,-27.01l-0.9 -9.73zm83.59 70.71l-14.92 -136.84 -23.67 2.58 -2.25 -20.63 23.67 -2.58 -1.66 -15.23c-1.7,-15.57 0.38,-27.88 6.22,-36.85 5.81,-9.03 15.98,-14.33 30.55,-15.92 9.81,-1.07 18.98,-0.94 27.52,0.38l-1.7 22.95c-5.35,-0.28 -10.2,-0.16 -14.55,0.31 -9.2,1.01 -15.32,3.52 -18.27,7.52 -2.98,4.01 -3.81,11.93 -2.52,23.76l1.11 10.16 30.65 -3.34 2.25 20.64 -30.65 3.34 14.92 136.84 -26.7 2.91zm56.69 -195.31l-3.31 -30.34 26.7 -2.91 3.31 30.34 -26.7 2.91zm20.38 186.91l-17.18 -157.48 26.71 -2.91 17.17 157.48 -26.7 2.91zm49.07 -85.02c-3.17,-29.08 2.57,-51.51 17.28,-67.28 12.23,-13.11 28.13,-20.72 47.6,-22.85 21.59,-2.35 40.06,2.79 55.36,15.46 15.24,12.61 24.26,31.43 26.98,56.36 2.2,20.23 0.89,36.44 -3.91,48.68 -4.8,12.24 -12.67,22.21 -23.6,29.9 -10.88,7.69 -23.23,12.26 -36.93,13.75 -22.05,2.41 -40.62,-2.68 -55.76,-15.31 -15.15,-12.62 -24.13,-32.21 -27.02,-58.71zm27.31 -2.93c2.19,20.13 8.24,34.71 18.12,43.72 9.94,9.05 21.56,12.85 34.97,11.39 13.25,-1.45 23.73,-7.66 31.47,-18.69 7.71,-11.02 10.44,-26.82 8.19,-47.4 -2.11,-19.43 -8.17,-33.66 -18.11,-42.65 -9.93,-9.05 -21.51,-12.85 -34.66,-11.42 -13.4,1.46 -23.93,7.62 -31.7,18.55 -7.71,10.92 -10.47,26.43 -8.28,46.5zm207.12 57.04l59.65 -226.34 31.61 -3.44 112.13 207.6 -32.72 3.57 -32.32 -63.1 -91.47 9.97 -16.39 68.41 -30.49 3.33zm52.77 -96.02l74.03 -8.08 -29.22 -57.75c-8.82,-17.57 -15.63,-32.13 -20.52,-43.67 -1.44,14.49 -3.91,28.83 -7.42,43.13l-16.87 66.37zm169.48 71.78l-23.69 -217.24 26.71 -2.91 23.68 217.24 -26.7 2.91zm170.88 -18.63l-2.56 -23.41c-10.29,19.18 -25.91,29.9 -46.89,32.18 -9.26,1.01 -18.09,0.18 -26.52,-2.48 -8.43,-2.71 -14.89,-6.51 -19.37,-11.45 -4.48,-4.99 -7.93,-11.26 -10.35,-18.88 -1.63,-5.14 -3.09,-13.37 -4.33,-24.7l-10.62 -97.45 26.7 -2.91 9.5 87.13c1.52,13.91 3.1,23.25 4.68,27.94 2.44,6.84 6.57,11.92 12.47,15.32 5.85,3.41 12.74,4.7 20.73,3.83 8,-0.87 15.26,-3.71 21.79,-8.56 6.53,-4.86 10.88,-11.02 13.04,-18.37 2.12,-7.34 2.47,-17.77 1.01,-31.16l-9.18 -84.21 26.69 -2.91 17.18 157.48 -23.97 2.61zm65.59 -7.15l-17.17 -157.48 23.96 -2.61 2.63 24.13c4.91,-11.85 9.76,-19.85 14.59,-23.96 4.81,-4.16 10.34,-6.55 16.55,-7.22 9,-0.99 18.47,0.85 28.39,5.44l-6.83 25.67c-6.87,-2.94 -13.54,-4.05 -20.01,-3.35 -5.82,0.64 -10.83,2.98 -15.05,6.97 -4.22,3.98 -6.98,9.2 -8.28,15.64 -1.95,9.78 -2.29,20.3 -1.06,31.58l8.98 82.28 -26.7 2.91zm202.05 -41.99c-8.99,9.53 -17.91,16.49 -26.68,20.98 -8.78,4.48 -18.39,7.27 -28.91,8.42 -17.3,1.89 -31.05,-0.86 -41.28,-8.29 -10.22,-7.38 -16.05,-17.65 -17.48,-30.75 -0.84,-7.68 0.17,-14.91 2.96,-21.66 2.85,-6.76 6.9,-12.31 12.14,-16.78 5.3,-4.46 11.35,-8.09 18.27,-10.84 5.11,-1.94 12.9,-4.12 23.33,-6.59 21.27,-4.87 36.86,-9.7 46.63,-14.35 -0.29,-3.65 -0.49,-5.98 -0.59,-6.94 -1.18,-10.82 -4.55,-18.18 -10.09,-22.08 -7.48,-5.27 -17.97,-7.15 -31.42,-5.68 -12.6,1.37 -21.66,4.61 -27.15,9.66 -5.53,5.06 -9.08,13.32 -10.74,24.87l-26.49 -0.8c1.16,-11.43 4.06,-20.91 8.77,-28.38 4.71,-7.48 12.03,-13.6 21.94,-18.46 9.86,-4.81 21.64,-7.99 35.19,-9.47 13.46,-1.46 24.6,-1.1 33.39,1.17 8.74,2.27 15.39,5.54 19.87,9.91 4.46,4.37 7.91,10.14 10.32,17.3 1.36,4.45 2.71,12.6 3.99,24.38l3.86 35.4c2.7,24.73 4.96,40.29 6.79,46.79 1.79,6.51 4.7,12.59 8.6,18.31l-27.91 3.04c-3.29,-5.32 -5.73,-11.7 -7.31,-19.16zm-8.58 -58.94c-9.28,5.01 -23.48,9.93 -42.6,14.78 -10.86,2.77 -18.45,5.39 -22.78,7.86 -4.34,2.47 -7.52,5.74 -9.59,9.75 -2.06,4.06 -2.87,8.39 -2.36,13.05 0.77,7.02 4.09,12.65 10.02,16.76 5.92,4.11 14.07,5.63 24.43,4.5 10.27,-1.12 19.18,-4.34 26.73,-9.72 7.51,-5.32 12.76,-12.08 15.66,-20.23 2.22,-6.33 2.67,-15.33 1.4,-27.02l-0.91 -9.73zm123.7 66.35l59.65 -226.34 31.61 -3.44 112.13 207.6 -32.72 3.57 -32.31 -63.1 -91.48 9.97 -16.39 68.41 -30.49 3.33zm52.78 -96.03l74.03 -8.07 -29.23 -57.76c-8.81,-17.56 -15.62,-32.12 -20.52,-43.66 -1.43,14.49 -3.91,28.83 -7.42,43.13l-16.86 66.36zm170.08 71.73l-23.69 -217.25 26.7 -2.91 8.53 78.17c10.81,-15.86 25.64,-24.79 44.56,-26.85 11.57,-1.26 21.89,-0.09 30.99,3.57 9.04,3.67 15.85,9.33 20.43,17.02 4.57,7.69 7.67,19.27 9.35,34.65l10.87 99.67 -26.7 2.91 -10.86 -99.57c-1.45,-13.3 -5.39,-22.7 -11.77,-28.14 -6.42,-5.44 -14.85,-7.59 -25.36,-6.45 -7.84,0.86 -15,3.68 -21.49,8.54 -6.48,4.85 -10.78,10.94 -12.99,18.3 -2.17,7.3 -2.59,17.12 -1.24,29.46l9.37 85.97 -26.7 2.91zm150.15 -96.05c-3.17,-29.08 2.58,-51.5 17.28,-67.28 12.24,-13.1 28.14,-20.72 47.61,-22.84 21.59,-2.36 40.06,2.79 55.36,15.45 15.24,12.61 24.26,31.44 26.97,56.37 2.21,20.22 0.9,36.44 -3.9,48.67 -4.81,12.25 -12.68,22.21 -23.6,29.9 -10.89,7.69 -23.23,12.26 -36.94,13.76 -22.04,2.4 -40.61,-2.69 -55.76,-15.32 -15.14,-12.62 -24.13,-32.21 -27.02,-58.71zm27.32 -2.92c2.19,20.12 8.23,34.71 18.12,43.71 9.94,9.05 21.56,12.85 34.96,11.39 13.26,-1.44 23.73,-7.66 31.48,-18.68 7.7,-11.03 10.43,-26.83 8.19,-47.41 -2.12,-19.42 -8.17,-33.65 -18.11,-42.65 -9.94,-9.05 -21.51,-12.85 -34.66,-11.41 -13.4,1.46 -23.94,7.62 -31.7,18.55 -7.71,10.92 -10.47,26.42 -8.28,46.5zm159.73 62.2l-17.17 -157.48 23.97 -2.61 2.63 24.12c4.9,-11.84 9.76,-19.84 14.58,-23.95 4.82,-4.16 10.34,-6.55 16.56,-7.23 9,-0.98 18.46,0.86 28.38,5.45l-6.82 25.67c-6.87,-2.94 -13.54,-4.05 -20.02,-3.35 -5.82,0.64 -10.83,2.98 -15.05,6.97 -4.22,3.98 -6.98,9.2 -8.27,15.64 -1.95,9.78 -2.29,20.3 -1.06,31.58l8.97 82.28 -26.7 2.91zm197.92 -79.91l26.49 0.79c-0.93,18.26 -6.69,33.07 -17.36,44.52 -10.68,11.45 -24.63,18.09 -41.78,19.96 -21.49,2.34 -39.55,-2.8 -54.13,-15.44 -14.64,-12.63 -23.35,-32.05 -26.21,-58.24 -1.85,-16.99 -0.64,-32.12 3.59,-45.48 4.23,-13.3 11.73,-23.79 22.58,-31.37 10.78,-7.62 22.92,-12.17 36.48,-13.64 17.04,-1.86 31.51,0.9 43.28,8.37 11.82,7.46 20.14,18.99 24.9,34.54l-25.36 6.75c-3.63,-10.29 -8.85,-17.76 -15.75,-22.43 -6.85,-4.63 -14.73,-6.48 -23.63,-5.51 -13.45,1.47 -23.85,7.47 -31.25,17.99 -7.34,10.58 -9.88,26.21 -7.61,47.04 2.3,21.14 8.02,36.02 17.16,44.7 9.18,8.66 20.27,12.32 33.26,10.9 10.53,-1.14 18.93,-5.29 25.2,-12.47 6.34,-7.14 9.72,-17.49 10.14,-30.98zm155.85 21.38c-9,9.53 -17.91,16.48 -26.68,20.97 -8.78,4.49 -18.39,7.28 -28.92,8.43 -17.29,1.88 -31.04,-0.87 -41.28,-8.3 -10.21,-7.37 -16.04,-17.64 -17.47,-30.74 -0.84,-7.69 0.17,-14.91 2.96,-21.66 2.85,-6.76 6.9,-12.32 12.14,-16.78 5.3,-4.47 11.35,-8.09 18.26,-10.84 5.12,-1.94 12.91,-4.12 23.34,-6.59 21.27,-4.87 36.85,-9.7 46.63,-14.35 -0.29,-3.65 -0.49,-5.98 -0.59,-6.94 -1.18,-10.82 -4.55,-18.18 -10.09,-22.08 -7.48,-5.28 -17.97,-7.15 -31.42,-5.68 -12.6,1.37 -21.66,4.61 -27.15,9.66 -5.53,5.05 -9.09,13.32 -10.74,24.86l-26.5 -0.79c1.17,-11.44 4.07,-20.91 8.78,-28.39 4.71,-7.47 12.03,-13.59 21.94,-18.45 9.86,-4.82 21.64,-7.99 35.19,-9.47 13.46,-1.47 24.6,-1.1 33.39,1.17 8.74,2.26 15.39,5.54 19.87,9.91 4.46,4.37 7.9,10.14 10.32,17.29 1.36,4.46 2.7,12.6 3.99,24.39l3.86 35.4c2.7,24.72 4.96,40.29 6.79,46.79 1.78,6.51 4.7,12.59 8.6,18.3l-27.91 3.05c-3.3,-5.32 -5.73,-11.71 -7.31,-19.16zm-8.58 -58.94c-9.28,5.01 -23.48,9.93 -42.6,14.78 -10.86,2.77 -18.45,5.39 -22.79,7.86 -4.33,2.46 -7.51,5.73 -9.58,9.74 -2.06,4.07 -2.87,8.4 -2.36,13.06 0.76,7.02 4.09,12.65 10.01,16.76 5.93,4.11 14.08,5.63 24.44,4.5 10.27,-1.12 19.18,-4.35 26.73,-9.72 7.5,-5.33 12.76,-12.09 15.66,-20.23 2.22,-6.33 2.67,-15.34 1.39,-27.02l-0.9 -9.73zm178.27 60.39l-2.18 -19.97c-8.27,16.61 -22.09,26 -41.46,28.11 -12.54,1.37 -24.44,-0.82 -35.67,-6.6 -11.27,-5.73 -20.46,-14.51 -27.63,-26.21 -7.11,-11.76 -11.54,-25.66 -13.29,-41.74 -1.71,-15.67 -0.63,-30.17 3.18,-43.53 3.87,-13.32 10.64,-23.99 20.36,-31.9 9.68,-7.97 21.05,-12.63 33.94,-14.04 9.5,-1.03 18.17,0.07 25.99,3.25 7.82,3.19 14.41,7.8 19.77,13.71l-8.52 -78.13 26.7 -2.91 23.68 217.25 -24.87 2.71zm-92.92 -69.33c2.19,20.12 8.08,34.67 17.71,43.71 9.58,9.03 20.19,12.9 31.77,11.63 11.68,-1.27 21.07,-7.11 28.23,-17.51 7.11,-10.39 9.62,-25.35 7.49,-44.88 -2.34,-21.43 -8.2,-36.76 -17.65,-45.92 -9.39,-9.16 -20.2,-13.04 -32.39,-11.71 -11.88,1.29 -21.27,7.18 -28.21,17.71 -6.88,10.52 -9.22,26.18 -6.95,46.97zm141.42 -15.63c-3.17,-29.08 2.57,-51.5 17.28,-67.28 12.23,-13.1 28.14,-20.72 47.6,-22.84 21.6,-2.36 40.07,2.79 55.37,15.45 15.24,12.61 24.25,31.44 26.97,56.36 2.21,20.23 0.9,36.45 -3.9,48.68 -4.81,12.25 -12.68,22.21 -23.61,29.9 -10.88,7.69 -23.22,12.26 -36.93,13.76 -22.05,2.4 -40.62,-2.69 -55.76,-15.32 -15.14,-12.62 -24.13,-32.21 -27.02,-58.71zm27.31 -2.92c2.2,20.12 8.24,34.71 18.12,43.71 9.95,9.05 21.57,12.85 34.97,11.39 13.25,-1.44 23.73,-7.66 31.48,-18.68 7.7,-11.03 10.43,-26.83 8.19,-47.41 -2.12,-19.42 -8.18,-33.65 -18.11,-42.65 -9.94,-9.05 -21.52,-12.85 -34.66,-11.41 -13.4,1.46 -23.94,7.62 -31.7,18.54 -7.71,10.93 -10.48,26.43 -8.29,46.51zm268.92 50.29l-24.88 2.72 -23.69 -217.25 26.7 -2.91 8.46 77.52c9.74,-15.29 23.33,-23.88 40.83,-25.79 9.66,-1.05 19.08,-0.13 28.14,2.82 9.08,2.94 16.76,7.68 23.14,14.1 6.33,6.48 11.66,14.49 15.88,24.11 4.27,9.57 7,20.07 8.23,31.39 2.93,26.91 -1.47,48.47 -13.16,64.58 -11.75,16.18 -26.94,25.26 -45.59,27.29 -18.56,2.02 -33.97,-4.13 -46.22,-18.4l2.16 19.82zm-9.01 -79.87c2.05,18.82 6.11,32.14 12.13,39.98 9.89,12.79 21.97,18.43 36.28,16.87 11.68,-1.27 21.19,-7.43 28.54,-18.46 7.39,-11.04 10,-26.58 7.81,-46.61 -2.24,-20.52 -7.93,-35.21 -17.14,-44.07 -9.21,-8.88 -19.6,-12.71 -31.13,-11.46 -11.68,1.28 -21.19,7.44 -28.54,18.47 -7.39,11.04 -10.04,26.12 -7.95,45.28zm158.57 124.81l-5.73 -24.34c6.04,0.93 11.19,1.19 15.54,0.71 5.97,-0.65 10.61,-2.18 13.93,-4.53 3.38,-2.37 6.01,-5.47 7.9,-9.26 1.37,-2.86 3.38,-9.79 5.96,-20.81 0.35,-1.52 0.88,-3.78 1.67,-6.78l-77 -151.47 28.53 -3.11 42.78 87.34c5.55,11.02 10.67,22.74 15.44,35.11 1.78,-12.32 4.13,-24.55 7.11,-36.64l23.56 -95.5 26.65 -2.91 -42.05 166.7c-4.54,17.94 -8.25,30.32 -11.13,37.24 -3.81,9.27 -8.57,16.29 -14.23,21.04 -5.73,4.78 -12.84,7.6 -21.33,8.52 -5.16,0.57 -11.04,0.13 -17.6,-1.31zm331.34 -117.33c-8.99,9.53 -17.91,16.49 -26.68,20.97 -8.77,4.49 -18.39,7.28 -28.91,8.43 -17.29,1.88 -31.05,-0.87 -41.28,-8.29 -10.22,-7.38 -16.04,-17.65 -17.47,-30.75 -0.84,-7.68 0.16,-14.91 2.96,-21.66 2.84,-6.76 6.89,-12.31 12.14,-16.78 5.29,-4.46 11.34,-8.09 18.26,-10.84 5.11,-1.94 12.9,-4.12 23.33,-6.59 21.27,-4.87 36.86,-9.7 46.64,-14.35 -0.3,-3.65 -0.49,-5.98 -0.6,-6.94 -1.18,-10.82 -4.54,-18.18 -10.09,-22.08 -7.48,-5.27 -17.97,-7.15 -31.42,-5.68 -12.59,1.37 -21.65,4.61 -27.14,9.66 -5.54,5.06 -9.09,13.32 -10.75,24.87l-26.49 -0.8c1.16,-11.43 4.07,-20.91 8.78,-28.39 4.71,-7.47 12.03,-13.59 21.93,-18.45 9.86,-4.81 21.64,-7.99 35.2,-9.47 13.45,-1.47 24.6,-1.1 33.39,1.17 8.74,2.27 15.39,5.54 19.86,9.91 4.47,4.37 7.91,10.14 10.33,17.3 1.36,4.45 2.7,12.6 3.99,24.38l3.86 35.4c2.69,24.73 4.95,40.29 6.79,46.79 1.78,6.51 4.7,12.59 8.59,18.31l-27.91 3.04c-3.29,-5.32 -5.73,-11.7 -7.31,-19.16zm-8.57 -58.94c-9.28,5.01 -23.48,9.93 -42.6,14.78 -10.86,2.77 -18.45,5.39 -22.79,7.86 -4.34,2.47 -7.51,5.73 -9.58,9.75 -2.06,4.06 -2.87,8.39 -2.37,13.05 0.77,7.02 4.1,12.65 10.02,16.76 5.92,4.11 14.08,5.63 24.44,4.5 10.26,-1.12 19.17,-4.34 26.72,-9.72 7.51,-5.32 12.76,-12.08 15.66,-20.23 2.23,-6.33 2.67,-15.34 1.4,-27.02l-0.9 -9.73zm173.19 2.61l26.49 0.8c-0.93,18.26 -6.68,33.07 -17.36,44.52 -10.67,11.45 -24.63,18.09 -41.77,19.96 -21.5,2.34 -39.56,-2.8 -54.14,-15.44 -14.63,-12.63 -23.35,-32.05 -26.21,-58.24 -1.85,-16.99 -0.63,-32.12 3.6,-45.48 4.22,-13.3 11.72,-23.79 22.57,-31.37 10.78,-7.62 22.92,-12.17 36.48,-13.64 17.04,-1.86 31.52,0.9 43.28,8.37 11.82,7.46 20.14,18.99 24.9,34.54l-25.36 6.75c-3.63,-10.29 -8.85,-17.76 -15.75,-22.43 -6.85,-4.63 -14.73,-6.48 -23.63,-5.51 -13.45,1.47 -23.85,7.47 -31.25,17.99 -7.34,10.58 -9.88,26.21 -7.61,47.04 2.3,21.14 8.02,36.02 17.16,44.7 9.18,8.66 20.27,12.32 33.27,10.9 10.52,-1.14 18.92,-5.29 25.19,-12.47 6.34,-7.14 9.72,-17.49 10.14,-30.99zm155.85 21.39c-8.99,9.53 -17.91,16.48 -26.68,20.97 -8.78,4.49 -18.39,7.28 -28.91,8.43 -17.3,1.88 -31.05,-0.87 -41.28,-8.3 -10.22,-7.38 -16.05,-17.64 -17.48,-30.74 -0.84,-7.69 0.17,-14.91 2.96,-21.66 2.85,-6.76 6.9,-12.32 12.14,-16.78 5.3,-4.47 11.35,-8.09 18.27,-10.84 5.11,-1.94 12.9,-4.12 23.33,-6.59 21.27,-4.88 36.86,-9.7 46.63,-14.35 -0.29,-3.65 -0.49,-5.98 -0.59,-6.94 -1.18,-10.82 -4.55,-18.18 -10.09,-22.08 -7.48,-5.28 -17.97,-7.15 -31.42,-5.68 -12.6,1.37 -21.66,4.61 -27.15,9.66 -5.53,5.05 -9.08,13.32 -10.74,24.86l-26.5 -0.79c1.17,-11.44 4.07,-20.91 8.78,-28.39 4.71,-7.48 12.03,-13.59 21.94,-18.46 9.86,-4.81 21.64,-7.98 35.19,-9.46 13.46,-1.47 24.6,-1.1 33.39,1.17 8.74,2.26 15.39,5.54 19.87,9.91 4.46,4.37 7.91,10.14 10.32,17.29 1.36,4.46 2.71,12.6 3.99,24.39l3.86 35.4c2.7,24.72 4.96,40.29 6.79,46.79 1.79,6.51 4.7,12.59 8.6,18.3l-27.91 3.05c-3.29,-5.32 -5.73,-11.71 -7.31,-19.16zm-8.58 -58.94c-9.28,5.01 -23.48,9.93 -42.6,14.78 -10.86,2.77 -18.45,5.39 -22.78,7.86 -4.34,2.46 -7.52,5.73 -9.59,9.74 -2.06,4.06 -2.87,8.4 -2.36,13.05 0.76,7.03 4.09,12.66 10.02,16.77 5.92,4.11 14.07,5.63 24.43,4.5 10.27,-1.12 19.18,-4.35 26.73,-9.72 7.51,-5.33 12.76,-12.09 15.66,-20.24 2.22,-6.32 2.67,-15.33 1.4,-27.01l-0.91 -9.73zm76.62 71.48l-17.17 -157.48 23.97 -2.61 2.42 22.25c4.07,-8.23 9.97,-15.16 17.65,-20.71 7.68,-5.59 16.73,-8.93 27.2,-10.07 11.63,-1.27 21.46,0.11 29.41,4.1 7.96,4.05 13.96,10.2 17.94,18.57 10.54,-19.72 25.78,-30.65 45.8,-32.83 15.68,-1.71 28.23,1.27 37.57,9 9.39,7.73 15.08,20.57 17.04,38.52l11.77 107.96 -26.7 2.92 -10.8 -99.12c-1.16,-10.62 -2.91,-18.21 -5.14,-22.72 -2.24,-4.52 -5.78,-7.92 -10.69,-10.3 -4.87,-2.39 -10.38,-3.22 -16.5,-2.55 -11.13,1.21 -19.93,5.91 -26.46,14.04 -6.53,8.18 -8.88,20.36 -7.12,36.55l9.96 91.37 -26.69 2.92 -11.15 -102.21c-1.29,-11.83 -4.44,-20.49 -9.43,-25.93 -4.99,-5.45 -12.45,-7.65 -22.31,-6.58 -7.48,0.82 -14.2,3.55 -20.14,8.18 -5.94,4.65 -9.92,10.91 -11.97,18.86 -2,7.9 -2.22,19.03 -0.66,33.33l8.9 81.62 -26.7 2.92zm355.61 -38.78l-2.56 -23.41c-10.29,19.18 -25.91,29.89 -46.89,32.18 -9.26,1.01 -18.09,0.18 -26.52,-2.48 -8.44,-2.71 -14.89,-6.51 -19.37,-11.45 -4.48,-4.99 -7.93,-11.26 -10.35,-18.88 -1.63,-5.14 -3.09,-13.37 -4.33,-24.7l-10.62 -97.45 26.7 -2.92 9.5 87.14c1.52,13.9 3.1,23.25 4.68,27.94 2.44,6.84 6.57,11.92 12.47,15.32 5.85,3.41 12.74,4.7 20.73,3.83 7.99,-0.87 15.26,-3.71 21.79,-8.56 6.53,-4.86 10.88,-11.02 13.04,-18.37 2.12,-7.34 2.47,-17.77 1.01,-31.16l-9.19 -84.21 26.7 -2.91 17.17 157.48 -23.96 2.61zm50.14 -53.06l25.93 -7.12c2.62,10.41 7.65,18.05 15.05,22.97 7.38,4.88 17.2,6.67 29.34,5.35 12.29,-1.34 21.12,-4.81 26.54,-10.47 5.38,-5.6 7.72,-11.79 6.99,-18.52 -0.66,-6.01 -3.86,-10.48 -9.54,-13.33 -4.01,-1.98 -13.43,-3.96 -28.3,-6.08 -20.05,-2.78 -34.02,-5.55 -41.99,-8.32 -7.94,-2.81 -14.19,-7.15 -18.78,-13.1 -4.59,-5.9 -7.33,-12.7 -8.16,-20.4 -0.77,-7.03 0.14,-13.68 2.68,-19.99 2.58,-6.32 6.39,-11.75 11.48,-16.3 3.82,-3.48 9.2,-6.68 16.1,-9.58 6.94,-2.9 14.46,-4.8 22.66,-5.69 12.33,-1.34 23.35,-0.76 33.04,1.82 9.75,2.52 17.15,6.63 22.26,12.2 5.07,5.65 9.04,13.45 11.83,23.48l-25.7 6.49c-2.06,-8.07 -6.2,-14.11 -12.36,-18.1 -6.17,-3.98 -14.41,-5.39 -24.77,-4.26 -12.19,1.33 -20.72,4.31 -25.49,8.92 -4.76,4.62 -6.87,9.66 -6.28,15.07 0.37,3.44 1.78,6.46 4.25,9 2.49,2.59 6.13,4.61 10.99,5.97 2.79,0.72 10.83,2.14 24.26,4.26 19.36,2.96 32.96,5.67 40.79,8.04 7.83,2.37 14.21,6.43 19.12,12.04 4.97,5.65 7.92,13 8.91,22.1 0.97,8.85 -0.7,17.48 -5.06,25.89 -4.35,8.4 -11.18,15.29 -20.46,20.65 -9.35,5.36 -20.19,8.7 -32.53,10.05 -20.43,2.22 -36.52,-0.32 -48.16,-7.6 -11.65,-7.33 -19.84,-19.12 -24.64,-35.44zm141.09 -159.07l-2.78 -25.48 140.48 -15.32 2.25 20.63c-12.2,16.22 -23.82,37.29 -34.71,63.2 -10.94,25.9 -18.67,52.18 -23.29,78.83 -3.33,18.73 -4.59,39.08 -3.69,60.89l-27.31 2.97c-1.57,-17.12 -0.48,-38.17 3.3,-63.09 3.78,-24.98 10.38,-49.33 19.91,-73.15 9.53,-23.81 20.21,-44.16 32.03,-61.05l-106.19 11.57z"/>
   <path class="fil2" d="M17701.14 4935.98l25.25 -4.91c3.5,11.81 8.59,20.05 15.3,24.79 6.71,4.75 14.84,6.63 24.45,5.58 8.2,-0.9 15.17,-3.55 20.98,-8.02 5.81,-4.42 10.32,-9.98 13.52,-16.73 3.21,-6.69 5.58,-15.54 7.09,-26.51 1.52,-10.96 1.65,-21.97 0.44,-33.05 -0.13,-1.16 -0.38,-2.98 -0.74,-5.34 -4.38,9.07 -10.91,16.8 -19.54,23.05 -8.62,6.32 -18.35,10.04 -29.07,11.21 -17.95,1.96 -33.83,-2.91 -47.7,-14.6 -13.8,-11.65 -21.9,-28.17 -24.22,-49.51 -2.41,-22.04 2.13,-40.45 13.66,-55.31 11.49,-14.82 26.99,-23.31 46.56,-25.45 14.06,-1.53 27.37,0.86 39.93,7.21 12.51,6.31 22.54,16.17 30.15,29.62 7.6,13.39 12.85,33.45 15.76,60.09 3.03,27.76 2.45,50.19 -1.77,67.28 -4.22,17.15 -11.86,30.61 -22.81,40.51 -10.94,9.89 -24.38,15.71 -40.36,17.45 -16.99,1.85 -31.37,-1.34 -43.16,-9.63 -11.76,-8.28 -19.68,-20.88 -23.72,-37.73zm98.48 -107.7c-1.66,-15.28 -7.04,-26.98 -16.1,-35.04 -9.02,-8.08 -19.32,-11.51 -30.85,-10.25 -11.93,1.3 -21.73,7.23 -29.37,17.84 -7.69,10.61 -10.68,23.62 -9,39 1.5,13.8 6.88,24.57 16.06,32.28 9.23,7.74 20.02,10.91 32.3,9.57 12.34,-1.34 21.99,-6.75 28.99,-16.26 7,-9.46 9.64,-21.88 7.97,-37.14z"/>
  </g>
 </g>
</svg>
