<?xml version="1.0" encoding="UTF-8"?>
<!DOCTYPE svg PUBLIC "-//W3C//DTD SVG 1.1//EN" "http://www.w3.org/Graphics/SVG/1.1/DTD/svg11.dtd">
<!-- Creator: CorelDRAW 2021 (64-Bit) -->
<svg xmlns="http://www.w3.org/2000/svg" xml:space="preserve" width="201.685mm" height="218.018mm" version="1.1" style="shape-rendering:geometricPrecision; text-rendering:geometricPrecision; image-rendering:optimizeQuality; fill-rule:evenodd; clip-rule:evenodd"
viewBox="0 0 20168.46 21801.76"
 xmlns:xlink="http://www.w3.org/1999/xlink"
 xmlns:xodm="http://www.corel.com/coreldraw/odm/2003">
 <defs>
  <style type="text/css">
   <![CDATA[
    .fil1 {fill:#040404}
    .fil4 {fill:#060606}
    .fil3 {fill:#343434}
    .fil0 {fill:#4B3732}
    .fil2 {fill:#FEFEFE}
    .fil5 {fill:#25CC7E;fill-rule:nonzero}
   ]]>
  </style>
 </defs>
 <g id="Capa_x0020_1">
  <metadata id="CorelCorpID_0Corel-Layer"/>
  <path class="fil0" d="M17536.53 4077.86c-260.35,35.32 -580.94,100.74 -852.56,148.9 -66.6,11.82 -102.09,24.09 -133.64,75.99 -68.48,112.6 16.18,258.13 140.59,242.29 244.42,-31.08 588.87,-110.41 850.85,-149.18 65.61,-9.73 104.99,-26.21 131.71,-78.66 61.06,-119.87 -19.37,-255.29 -136.95,-239.34z"/>
  <path class="fil0" d="M17533.23 3707.78l-853.15 148.55c-233.3,39.37 -164.71,346.16 27.02,315.16 227.45,-36.79 455.77,-78.9 682.34,-119.64 117.65,-21.16 249.12,-17.18 295.55,-114.07 59.96,-125.18 -35.21,-249.3 -151.76,-230z"/>
  <path class="fil0" d="M16988.2 3397.03c45.06,-7.89 252.1,-54.86 275.99,-80.14 16.47,-53.17 24.63,-1673.9 26.86,-1885.99l-278.74 -14.3 -24.11 1980.43z"/>
  <path class="fil0" d="M17534.85 3337.11l-853.4 148.22c-215.05,37.01 -168.78,347.97 37.65,313.01 227.48,-38.53 453.9,-80.16 682,-119.49 117.88,-20.33 245.68,-16.65 292.54,-116.86 26.38,-56.41 16.29,-126.21 -14.68,-169 -33.72,-46.59 -71.87,-68.94 -144.11,-55.88z"/>
  <path class="fil0" d="M16202.51 2847.12c10.69,20.64 30.1,37.69 43.36,57.21 31.58,46.4 108.86,134.91 132.4,180.25 20.58,-9.98 40.79,-38.83 61.81,-55.98 126.87,-103.52 290.28,-109.51 415.86,-5.83 28.38,23.44 89.67,91.04 104.41,130.38l9.61 -421.42c-202.24,-161.28 -568.79,-113.49 -737.13,80.46 -15.16,17.48 -18.38,23.56 -30.32,34.93z"/>
  <path class="fil0" d="M16563.92 4780.52c-31.9,51.87 -62.2,104.52 -93.74,158.36 -63.29,108.06 -123.74,206.21 -184.92,312.79 -127.93,222.72 -185.62,539.31 -127.77,841.88 95.33,498.72 502.98,934.31 1058.2,882.31 478.34,-44.83 874.66,-491.45 895.47,-1065.52 17.02,-469.54 -206.66,-719.55 -412.31,-1078.08 -75.85,-126.54 -156.3,-257.24 -229.47,-385.01 -95.95,13.85 -195.86,30.74 -291.12,50.42 -19.38,7.86 -5.66,1.48 -12.3,6.89 169.35,310.94 384.13,644.25 567.2,951.47 217.14,422.32 58.67,930.41 -293.86,1128.52 -467.23,262.55 -1064.25,-144.73 -1025.41,-788.78 7.31,-121.06 38.68,-235.48 83.38,-328.69 41.29,-86.13 551.85,-920.05 553.26,-948.41 -72.17,12.19 -299.96,38.03 -357.32,62.67 -27.79,11.94 -108.85,165.93 -129.29,199.18z"/>
  <path class="fil1" d="M16140.26 10659.59c-512.98,149.01 -774.05,255.67 -1113.19,709.89 -392.05,525.11 -539.19,1324.96 -267.14,1968.54 113.7,268.98 271.59,462.91 492.26,656.27 650.4,569.87 2074.98,373.08 2608.78,-351.4 254.3,-345.12 420.02,-862.73 323.03,-1435.6 -110.15,-650.51 -553.21,-1347.77 -1252.25,-1461.37 -130.55,-21.22 -553.43,-155.47 -791.49,-86.33z"/>
  <path class="fil2" d="M15977.4 11162.94c-697.08,284.88 -992.41,982.69 -865.56,1756.12 217.33,1325.13 2024.14,1145.72 2487.47,320.66 365.53,-650.87 131.63,-2035.6 -977.82,-2104.97 -192.09,-12.02 -479.49,-39.08 -644.09,28.19z"/>
  <path class="fil1" d="M16122.83 12238.31c61.53,-149.74 78.11,-179.98 -23.11,-325.7 -90.55,-130.35 -129.03,-203.22 -254.65,-62.46 -198.87,222.84 -9.47,458.47 277.76,388.16z"/>
  <path class="fil1" d="M16517.03 12063.26c153.93,168.2 216.09,346.07 438.95,58.32 -34.57,-131.74 -139.89,-284.13 -251.61,-335.45 -88.09,60.95 -134.21,163.2 -187.34,277.13z"/>
  <path class="fil3" d="M15688.93 12966.66c264,1.21 595.22,15.56 851.29,2.9 402.83,-19.89 332.06,-246.93 562.16,-138 -159.58,198.41 -372.46,318.52 -627.09,332.06 -370.5,19.73 -629.28,32.03 -786.36,-196.96z"/>
  <path class="fil1" d="M16454.76 14159.9l-343.48 0c-22.66,16.05 -13.82,13.9 -55.01,31.12 -0.7,0.3 -40.24,12.16 -49.26,15.17l109.19 1010.31c31.42,363.07 35.21,730.4 32.59,1112.3 -2.36,343.45 -71.8,804.98 -41.44,1060.83 39.59,333.52 -8.46,782.38 10.75,1140.36l153.28 -22.19c156.49,-18.64 480.28,-96.6 572.81,-13.16 31.93,-368.93 8.55,-819.1 6.52,-1196.05 -2.01,-374.24 67.1,-737.76 -28.54,-1113.24 -42.56,-167.09 -55.61,-352.62 -58.47,-541.37 -4.18,-276.47 -47.93,-294.14 -86.75,-513.88 -31.76,-179.77 -49.86,-347.3 -74.98,-519.1 -72.08,-493.09 -140.75,-204.39 -147.21,-451.1z"/>
  <path class="fil4" d="M16814.7 18426.17l1353.78 3009.63c165.83,324.23 127.95,328.15 244.46,345.74 83.72,-84.09 22.76,-36.66 74.13,-144.94 71.23,-150.15 261.51,-275.63 316.37,-360.04 -15.8,-55.77 -115.17,-188.53 -154.27,-236.23 -183.37,-223.72 -964.19,-1627.92 -1132.07,-2009.37l-254.65 -543.28c-67.4,-117.69 -5.22,-57.52 -113.22,-258.92l-220.67 -576.46c-112.72,-268.66 -86.39,-411.67 -90.37,-685l-23.49 0 0 1458.88 0 -0.01z"/>
  <path class="fil1" d="M13747.98 20758.23c-232.6,222.28 -148.98,234.13 -54.98,373.51 96.25,142.71 51.08,299.27 185.54,406.07 95.98,-61.32 1061.19,-1267.33 1201.09,-1473.77 174.35,-257.26 416.51,-496.52 564.66,-775.56l517.3 -832 0 -1220.55 -25.92 0c-74.56,256.83 48.32,488.76 -94.25,765.22 -50.04,97.04 -127.37,177.37 -173.33,253.62 -410.27,680.49 -1553.36,1961.79 -2120.11,2503.46z"/>
  <path class="fil1" d="M12985.76 13890.19c20.73,-50.14 111.99,-143.72 168.08,-195.04 211.52,26.82 2120.97,883.6 2451.21,1059.53 328.07,174.78 696.48,444.92 719.81,456.84l0 364.64 -16.61 0c-23.39,-119.69 -33,-97.2 -144.64,-153.78 -321.18,-162.8 -619.03,-333.2 -961.1,-466.38 -132.8,-51.7 -276.51,-128.25 -395.12,-174.67l-1650.4 -598.87c-246.95,-38.91 -369.63,-49.75 -404.7,-175.9 64.34,-60.58 145.16,-84.66 233.47,-116.37z"/>
  <path class="fil1" d="M16442.03 15434.62l68.16 -313.58c89.97,-23.24 -3.54,67.04 136.04,-48l462.57 -398.33c208.15,-167.58 402.46,-331.97 619.32,-493.36 173,-128.75 1155.39,-897.61 1310.87,-940.41 100.86,28.42 97.41,71.13 218.76,121.63 140.81,58.61 162.57,18.24 236.83,131.81 -37.86,59.64 -1035.6,645.46 -1168.19,743.09l-1884.36 1378.83 0 -181.68z"/>
  <path class="fil5" d="M7159.53 5274.33l540.39 0 0 419.79 -220.5 0 0 401.18 195.66 0 0 398.53 -195.66 0 0 882.08 -319.89 0 0 -2101.58zm618.05 0l532.63 0 0 419.79 -212.74 0 0 401.18 198.76 0 0 398.53 -198.76 0 0 462.3 234.48 0 0 419.78 -554.37 0 0 -2101.58zm965.1 0l0 1681.8 192.56 0 0 419.78 -512.44 0 0 -2101.58 319.88 0zm590.6 0l0 2101.58 -319.89 0 0 -2101.58 319.89 0zm872.96 916.62l-319.89 0 0 -364.87c0,-106.27 -3.36,-172.26 -10.08,-198.83 -6.74,-26.12 -21.74,-39.41 -44.78,-39.41 -25.88,0 -42.45,15.94 -49.43,47.82 -7,32.33 -10.62,101.4 -10.62,207.68l0 975.07c0,102.3 3.62,168.72 10.62,200.14 6.98,31 22.78,46.51 47.1,46.51 23.54,0 39.07,-15.51 46.32,-46.95 7.25,-30.98 10.87,-104.49 10.87,-220.08l0 -264.35 319.89 0 0 81.93c0,217.86 -9.06,372.4 -26.91,463.17 -17.86,91.21 -57.71,170.92 -119.06,239.56 -61.6,68.64 -137.16,102.74 -227.23,102.74 -93.42,0 -170.55,-28.79 -231.37,-86.8 -60.56,-58.01 -100.94,-138.16 -120.61,-240.88 -19.67,-102.74 -29.51,-256.83 -29.51,-462.75l0 -613.74c0,-151.44 3.11,-264.78 9.07,-340.51 6.21,-75.71 24.06,-148.79 54.35,-218.74 30.01,-69.96 71.68,-125.32 124.99,-165.61 53.33,-40.31 114.66,-60.23 184.02,-60.23 93.94,0 171.59,31.01 232.93,93.43 61.08,61.99 101.19,139.5 120.61,232.49 19.15,92.99 28.72,237.34 28.72,433.51l0 199.7zm434.29 -916.62l0 2101.58 -319.89 0 0 -2101.58 319.89 0zm127.59 0l238.88 0c153.99,0 258.29,11.95 312.64,36.32 54.35,24.35 95.76,64.2 123.97,119.56 28.21,55.33 46.07,116.9 53.05,184.64 7,68.2 10.62,201.48 10.62,400.75l0 735.95c0,188.63 -5.18,314.82 -15.53,378.15 -10.36,63.76 -28.47,113.81 -54.09,149.68 -25.88,35.86 -57.72,60.65 -95.76,75.27 -37.79,14.17 -94.99,21.26 -171.34,21.26l-402.44 0 0 -2101.58zm319.89 358.68l0 1384.22c45.29,0 73.24,-15.94 83.59,-47.38 10.62,-31.88 15.79,-117.78 15.79,-258.16l0 -817.43c0,-95.21 -1.81,-156.32 -5.17,-183.32 -3.63,-27.01 -11.4,-46.49 -24.08,-58.89 -12.42,-12.85 -35.71,-19.04 -70.13,-19.04zm1089.33 -358.68l182.72 2101.58 -326.37 0 -17.33 -377.27 -115.17 0 -17.34 377.27 -330.5 0 162.01 -2101.58 461.98 0zm-169.52 1352.37c-15.27,-238.24 -31.31,-533.16 -48.39,-885.18 -31.59,403.84 -51.52,698.76 -60.05,885.18l108.44 0zm407.11 -1352.37l238.88 0c153.99,0 258.29,11.95 312.64,36.32 54.35,24.35 95.76,64.2 123.97,119.56 28.21,55.33 46.07,116.9 53.05,184.64 7,68.2 10.61,201.48 10.61,400.75l0 735.95c0,188.63 -5.17,314.82 -15.52,378.15 -10.36,63.76 -28.47,113.81 -54.1,149.68 -25.87,35.86 -57.71,60.65 -95.75,75.27 -37.79,14.17 -94.99,21.26 -171.34,21.26l-402.44 0 0 -2101.58zm319.88 358.68l0 1384.22c45.29,0 73.24,-15.94 83.6,-47.38 10.61,-31.88 15.79,-117.78 15.79,-258.16l0 -817.43c0,-95.21 -1.81,-156.32 -5.18,-183.32 -3.63,-27.01 -11.39,-46.49 -24.07,-58.89 -12.42,-12.85 -35.72,-19.04 -70.14,-19.04zm538.33 -358.68l532.63 0 0 419.79 -212.74 0 0 401.18 198.76 0 0 398.53 -198.76 0 0 462.3 234.48 0 0 419.78 -554.37 0 0 -2101.58zm1320.72 637.65l-296.59 0 0 -155.44c0,-72.61 -3.88,-119.1 -11.39,-139.03 -7.5,-19.92 -19.93,-29.67 -37.52,-29.67 -19.16,0 -33.65,13.29 -43.48,40.29 -9.85,26.57 -14.76,66.86 -14.76,121.34 0,69.96 5.7,122.66 16.82,158.07 10.87,34.98 40.89,77.95 90.33,128.43 141.56,144.79 230.86,263.91 267.6,356.46 37.01,92.55 55.39,241.78 55.39,447.23 0,149.67 -10.36,259.94 -30.8,331.23 -20.44,70.84 -59.78,130.19 -118.53,178.01 -58.5,48.26 -126.56,72.18 -204.46,72.18 -85.41,0 -158.14,-27.89 -218.7,-83.25 -60.29,-55.35 -99.64,-125.77 -118.53,-211.23 -18.63,-85.89 -27.95,-207.67 -27.95,-364.86l0 -137.72 296.59 0 0 255.5c0,78.82 4.15,129.3 12.43,151.88 8.27,22.59 23.03,33.66 44.26,33.66 21.21,0 37,-14.17 47.35,-42.95 10.36,-28.35 15.53,-70.86 15.53,-126.65 0,-123.54 -9.83,-204.58 -29.5,-242.22 -20.44,-38.07 -70.14,-101.84 -149.33,-191.29 -79.2,-89.9 -131.48,-155.44 -157.35,-196.17 -25.63,-40.73 -47.11,-96.96 -63.94,-168.7 -16.81,-71.74 -25.36,-163.41 -25.36,-275 0,-160.73 11.91,-278.53 35.97,-352.92 24.08,-74.39 62.64,-132.4 116.21,-174.45 53.58,-42.07 118.02,-62.89 193.85,-62.89 82.82,0 153.22,23.03 211.7,68.64 58.24,46.05 96.81,103.62 115.7,173.58 18.89,69.51 28.46,187.75 28.46,354.7l0 83.24zm-6270.06 3379.11l-319.88 0 0 -190.86c0,-120.43 -2.85,-195.72 -8.81,-225.83 -5.94,-30.54 -20.18,-45.61 -42.44,-45.61 -19.15,0 -32.35,12.85 -39.33,38.98 -7,25.67 -10.36,92.53 -10.36,199.7l0 1007.83c0,93.87 3.36,156.32 10.36,185.98 6.98,29.67 20.7,44.73 41.4,44.73 22.78,0 38.05,-16.82 46.33,-50.48 8.02,-33.66 12.16,-99.64 12.16,-197.49l0 -248.86 -62.11 0 0 -318.83 372.68 0 0 1126.51 -201.08 0 -29.51 -150.56c-21.74,65.1 -49.18,113.81 -82.04,146.57 -33.14,32.78 -72.22,49.16 -116.99,49.16 -53.57,0 -103.52,-22.13 -150.36,-66.86 -46.59,-44.73 -82.05,-99.64 -106.12,-165.63 -24.32,-65.52 -39.34,-134.6 -45.55,-206.77 -5.95,-72.2 -9.06,-180.67 -9.06,-325.04l0 -624.36c0,-200.58 6.21,-346.27 18.89,-437.04 12.68,-91.24 48.92,-174.48 108.7,-250.19 59.79,-75.73 137.18,-113.36 232.16,-113.36 93.43,0 170.81,32.76 232.4,98.74 61.6,65.98 101.98,143.91 120.61,234.24 18.64,90.77 27.95,221.86 27.95,394.56l0 90.77zm675.75 -775.8l182.73 2101.57 -326.37 0 -17.34 -377.27 -115.17 0 -17.34 377.27 -330.5 0 162.01 -2101.57 461.98 0zm-169.52 1352.34c-15.27,-238.24 -31.31,-533.15 -48.39,-885.18 -31.58,403.85 -51.51,698.76 -60.05,885.18l108.44 0zm1119.87 -1352.34l0 2101.57 -279.52 0 -166.15 -955.59 0 955.59 -267.09 0 0 -2101.57 267.09 0 178.58 946.28 0 -946.28 267.09 0zm679.12 0l182.72 2101.57 -326.36 0 -17.34 -377.27 -115.17 0 -17.34 377.27 -330.5 0 162.01 -2101.57 461.98 0zm-169.52 1352.34c-15.27,-238.24 -31.31,-533.15 -48.39,-885.18 -31.58,403.85 -51.51,698.76 -60.05,885.18l108.44 0zm1082.6 -714.7l-296.6 0 0 -155.43c0,-72.62 -3.87,-119.1 -11.38,-139.04 -7.51,-19.92 -19.93,-29.67 -37.52,-29.67 -19.16,0 -33.65,13.29 -43.48,40.3 -9.85,26.57 -14.76,66.86 -14.76,121.33 0,69.96 5.7,122.66 16.82,158.08 10.87,34.98 40.89,77.95 90.32,128.43 141.57,144.78 230.87,263.9 267.61,356.45 37.01,92.56 55.39,241.78 55.39,447.24 0,149.66 -10.36,259.93 -30.8,331.23 -20.45,70.83 -59.78,130.18 -118.53,178.01 -58.5,48.26 -126.57,72.17 -204.47,72.17 -85.4,0 -158.13,-27.89 -218.69,-83.24 -60.29,-55.36 -99.64,-125.77 -118.53,-211.23 -18.64,-85.9 -27.95,-207.68 -27.95,-364.87l0 -137.72 296.59 0 0 255.5c0,78.83 4.15,129.31 12.42,151.88 8.28,22.59 23.04,33.66 44.27,33.66 21.21,0 37,-14.16 47.35,-42.95 10.36,-28.35 15.53,-70.86 15.53,-126.65 0,-123.53 -9.83,-204.58 -29.5,-242.21 -20.45,-38.08 -70.14,-101.84 -149.33,-191.3 -79.2,-89.89 -131.48,-155.43 -157.35,-196.17 -25.63,-40.73 -47.12,-96.96 -63.94,-168.7 -16.81,-71.73 -25.36,-163.4 -25.36,-274.99 0,-160.73 11.91,-278.53 35.97,-352.93 24.08,-74.39 62.64,-132.4 116.21,-174.45 53.58,-42.07 118.02,-62.88 193.85,-62.88 82.81,0 153.22,23.03 211.7,68.63 58.24,46.05 96.8,103.62 115.69,173.58 18.9,69.52 28.47,187.76 28.47,354.7l0 83.24zm770.47 -637.64l0 419.78 -187.89 0 0 1681.79 -319.89 0 0 -1681.79 -189.45 0 0 -419.78 697.23 0zm72.99 0l532.63 0 0 419.78 -212.75 0 0 401.19 198.77 0 0 398.53 -198.77 0 0 462.29 234.49 0 0 419.78 -554.37 0 0 -2101.57zm972.87 0l-49.95 1583.49 -236.82 0 -50.2 -1583.49 336.97 0zm-24.85 1681.79l0 419.78 -287.28 0 0 -419.78 287.28 0zm444.13 -1681.79l-49.95 1583.49 -236.82 0 -50.2 -1583.49 336.97 0zm-24.86 1681.79l0 419.78 -287.28 0 0 -419.78 287.28 0zm444.13 -1681.79l-49.95 1583.49 -236.82 0 -50.2 -1583.49 336.97 0zm-24.85 1681.79l0 419.78 -287.27 0 0 -419.78 287.27 0z"/>
 </g>
</svg>
